<?xml version="1.0" encoding="UTF-8"?>
<!DOCTYPE svg PUBLIC "-//W3C//DTD SVG 1.1//EN" "http://www.w3.org/Graphics/SVG/1.1/DTD/svg11.dtd">
<!-- Creator: CorelDRAW X8 -->
<svg xmlns="http://www.w3.org/2000/svg" xml:space="preserve" width="295px" height="295px" version="1.1" style="shape-rendering:geometricPrecision; text-rendering:geometricPrecision; image-rendering:optimizeQuality; fill-rule:evenodd; clip-rule:evenodd"
viewBox="0 0 2950 2950"
 xmlns:xlink="http://www.w3.org/1999/xlink">
 <defs>
  <style type="text/css">
   <![CDATA[
    .fil0 {fill:#FFED00}
   ]]>
  </style>
 </defs>
 <g id="Слой_x0020_1">
  <metadata id="CorelCorpID_0Corel-Layer"/>
  <g id="shopping-cart.svg">
   <g>
    <g>
     <g>
      <path class="fil0" d="M990 2220c-155,0 -280,125 -280,279 0,155 125,280 280,280 154,0 280,-125 280,-280 0,-154 -126,-279 -280,-279zm0 435c-86,0 -155,-70 -155,-156 0,-86 69,-155 155,-155 86,0 155,69 155,155 0,86 -69,156 -155,156z"/>
      <path class="fil0" d="M2171 2220c-154,0 -280,125 -280,279 0,155 126,280 280,280 155,0 280,-125 280,-280 0,-154 -125,-279 -280,-279zm0 435c-86,0 -155,-70 -155,-156 0,-86 69,-155 155,-155 86,0 156,69 156,155 0,86 -70,156 -156,156z"/>
      <path class="fil0" d="M2802 588c-13,-15 -30,-23 -50,-25l-2023 -28 -56 -171c-40,-115 -147,-192 -267,-193l-209 0c-34,0 -62,28 -62,62 0,34 28,62 62,62l209 0c67,2 127,45 149,109l395 1191 -32 71c-34,90 -24,190 28,271 52,79 139,127 234,130l1209 0c34,0 62,-28 62,-62 0,-34 -28,-62 -62,-62l-1209 0c-54,-1 -103,-30 -131,-75 -28,-44 -34,-99 -16,-149l25 -56 1309 -137c144,-16 262,-120 295,-261l150 -625c6,-18 3,-38 -10,-52zm-261 649c-20,91 -97,158 -190,165l-1293 134 -289 -877 1906 28 -134 550z"/>
     </g>
    </g>
   </g>
   <g>
   </g>
   <g>
   </g>
   <g>
   </g>
   <g>
   </g>
   <g>
   </g>
   <g>
   </g>
   <g>
   </g>
   <g>
   </g>
   <g>
   </g>
   <g>
   </g>
   <g>
   </g>
   <g>
   </g>
   <g>
   </g>
   <g>
   </g>
   <g>
   </g>
  </g>
 </g>
</svg>
