<?xml version="1.0" standalone="no"?>
<!DOCTYPE svg PUBLIC "-//W3C//DTD SVG 20010904//EN"
 "http://www.w3.org/TR/2001/REC-SVG-20010904/DTD/svg10.dtd">
<svg version="1.0" xmlns="http://www.w3.org/2000/svg"
 width="364.000000pt" height="364.000000pt" viewBox="0 0 364.000000 364.000000"
 preserveAspectRatio="xMidYMid meet">
<metadata>
Created by potrace 1.14, written by Peter Selinger 2001-2017
</metadata>
<g transform="translate(0.000000,364.000000) scale(0.100000,-0.100000)"
fill="#000000" stroke="none">
<path d="M1390 3384 c-234 -136 -443 -257 -465 -269 -22 -13 -123 -71 -225
-130 -102 -59 -245 -141 -317 -183 l-133 -76 0 -906 0 -905 328 -189 c585
-339 1136 -657 1190 -688 l52 -30 113 65 c61 35 225 129 362 209 138 79 440
254 673 389 l422 244 0 905 0 906 -402 232 c-494 285 -449 259 -533 308 -38
23 -104 60 -145 84 -41 23 -88 50 -105 60 -16 9 -102 59 -190 110 -88 51 -164
96 -169 101 -6 5 -15 9 -20 9 -6 0 -202 -111 -436 -246z m688 -221 c131 -75
350 -201 487 -281 138 -80 266 -154 285 -164 19 -11 86 -49 148 -85 l112 -65
0 -41 c1 -56 1 -1315 0 -1393 l0 -62 -167 -97 c-93 -54 -188 -109 -213 -123
-25 -14 -85 -49 -135 -77 -49 -29 -113 -66 -140 -82 -44 -24 -245 -140 -293
-168 -9 -5 -90 -52 -180 -103 l-162 -94 -338 195 c-185 107 -475 274 -644 371
l-308 178 0 334 c-1 430 -1 1050 0 1113 l0 49 413 238 c226 130 480 277 564
325 83 49 167 97 185 108 18 10 53 30 78 45 25 14 51 24 58 21 8 -3 120 -67
250 -142z"/>
<path d="M1106 2735 c-22 -8 -52 -27 -68 -43 l-29 -29 34 -89 c20 -49 73 -186
120 -304 46 -118 103 -264 127 -325 23 -60 50 -129 61 -152 10 -24 19 -45 19
-48 0 -5 177 -461 190 -490 5 -11 64 -159 130 -330 66 -171 124 -318 128 -328
5 -12 36 63 100 240 124 342 401 1093 412 1118 5 11 46 121 91 245 182 503
177 481 117 518 -69 43 -77 40 -138 -40 -30 -40 -171 -225 -314 -411 -212
-277 -261 -336 -271 -325 -7 7 -135 162 -285 343 -239 290 -298 362 -369 445
-15 17 -19 18 -55 5z m409 -645 c170 -212 309 -386 310 -388 1 -1 129 171 284
384 154 212 281 383 281 380 0 -4 -39 -113 -86 -244 -48 -130 -93 -253 -100
-272 -145 -401 -368 -1008 -373 -1018 -5 -9 -36 57 -83 175 -102 255 -523
1298 -543 1348 -9 22 -13 36 -7 30 5 -5 148 -183 317 -395z"/>
</g>
</svg>
